<svg width="32" height="32" viewBox="0 0 32 32" fill="none" xmlns="http://www.w3.org/2000/svg">
<g clip-path="url(#clip0_2_51)">
<g filter="url(#filter0_d_2_51)">
<path fill-rule="evenodd" clip-rule="evenodd" d="M7.74474 12.6684C7.70493 12.8462 7.59757 12.8949 7.5631 13.0352C7.50692 13.2639 7.59396 14.2556 7.53586 14.5854C7.51689 14.693 7.48239 14.6524 7.50953 14.7943C7.52654 14.8832 7.55132 14.8485 7.54447 14.9887C7.53497 15.182 7.54974 15.2569 7.54874 15.4542L7.55191 19.6347C7.55298 20.0195 7.60478 20.2865 7.43769 20.5287C7.34734 20.5399 7.26722 20.5549 7.1759 20.5346C7.05138 20.507 7.06228 20.4826 7.02814 20.4031L6.87199 20.3341C6.69883 20.2974 6.33501 20.0182 6.19133 19.8975C6.16692 19.877 6.08746 19.8211 6.08732 19.8209C6.06824 19.8003 6.02572 19.7027 6.02163 19.6963C5.97549 19.6584 5.651 19.1918 5.61436 19.1133C5.56002 18.9969 5.49753 18.8834 5.44591 18.7577C5.24347 18.2647 5.31225 16.9774 5.31001 16.4079C5.30854 16.0231 5.24984 13.6657 5.34237 13.3993C5.38089 13.2884 5.3789 13.3495 5.39878 13.2109C5.44819 12.8671 5.5359 12.886 5.58848 12.6893C5.61841 12.5535 5.64518 12.5762 5.77899 12.3558L5.94066 12.1514C5.94615 12.1463 5.95377 12.1394 5.95911 12.1347L6.02855 12.0797C6.12318 12.015 6.22992 11.9195 6.32521 11.8202C6.41008 11.7318 6.37087 11.758 6.48166 11.6963C6.56863 11.6479 6.54425 11.6331 6.64617 11.6151C6.70004 11.4548 6.64982 11.5613 6.83429 11.4561C6.83907 11.4534 6.84592 11.4479 6.85078 11.4452C7.03676 11.3415 7.55946 11.2106 7.76863 11.204C7.84662 11.2015 7.92707 11.202 8.0027 11.1826C8.11743 11.1533 8.00583 11.1505 8.17277 11.1363L11.0679 11.1558C11.341 11.1026 11.7593 11.1265 11.9843 11.1772C12.3586 11.2617 13.6469 11.0173 13.8471 11.3354C14.0308 11.441 14.353 11.8804 14.406 12.1093C14.4137 12.1157 14.4237 12.1233 14.4294 12.1285C14.4349 12.1334 14.4452 12.1411 14.4515 12.1472C14.4573 12.1527 14.465 12.1593 14.4709 12.1655L14.8466 12.8458C14.9349 13.0304 15.2113 13.4086 15.2206 13.6112C15.3514 13.7079 15.3292 13.8453 15.4061 13.9811L15.507 14.0006C15.5249 14.0733 15.7178 14.4664 15.7889 14.5235L15.7944 14.6402C15.7787 14.8433 15.8955 14.758 16.0227 15.0931C16.1379 15.3966 16.3644 15.6799 16.4553 15.896L16.4932 15.9833C16.4965 15.989 16.5016 15.9964 16.5051 16.0019C16.5882 16.133 16.707 16.2819 16.7381 16.4204L16.8474 16.5249C16.9285 16.6624 16.9819 16.7714 16.9833 16.9432C17.0036 17.0325 17.1518 17.1717 17.2243 17.2885C17.2664 17.3564 17.2855 17.4133 17.3349 17.4884C17.3846 17.564 17.4276 17.5771 17.4173 17.6973C17.423 17.7035 17.4293 17.7127 17.4328 17.7173C17.4362 17.7218 17.4438 17.7315 17.448 17.737L18.2324 19.1538C18.3235 19.3179 18.6928 19.582 18.9017 19.6278C19.071 19.665 21.9601 19.6369 22.2955 19.6398C22.6698 19.6431 23.0792 19.6536 23.4505 19.6422C23.8565 19.6298 23.9979 19.3963 24.2283 19.2943C24.2283 19.1249 24.3548 19.1231 24.4018 18.925C24.4344 18.7879 24.4296 18.5508 24.4274 18.4055C24.4116 17.3622 24.3865 15.6131 24.4405 14.6522C24.446 14.5557 24.4233 14.3093 24.4214 14.1646L24.4149 12.0134C24.4171 11.6174 24.3186 11.3213 24.7912 11.3374C24.7984 11.3448 24.8159 11.373 24.8192 11.378L24.8508 11.4313C24.9849 11.4371 25.2629 11.6439 25.4057 11.714C25.5105 11.7654 25.572 11.8328 25.6459 11.9062C26.1938 12.4496 26.3784 12.688 26.5904 13.4675C26.6813 13.802 26.6447 14.3168 26.6534 14.6563C26.6672 15.2038 26.6599 15.7657 26.6643 16.3157L26.6697 17.6012C26.6879 17.7172 26.7415 17.7486 26.7045 17.9327C26.6151 18.3776 26.7015 18.3327 26.5672 18.6204C26.4229 18.9294 26.4994 18.9132 26.3867 19.0868C26.2377 19.3163 26.1852 19.4656 25.96 19.6828L25.5411 20.0985C25.3317 20.2966 24.5999 20.6326 24.371 20.5783C24.3136 20.6631 24.3028 20.6572 24.1901 20.6722C23.7838 20.7264 22.9862 20.7058 22.5761 20.7036C21.9534 20.7004 21.3274 20.713 20.7056 20.7047C20.0919 20.6964 18.4292 20.7692 17.9689 20.6073C17.8108 20.5516 17.5747 20.2711 17.5292 20.0998C17.5062 20.0441 17.4827 20.0331 17.457 19.983C17.4173 19.9056 17.4313 19.9093 17.3866 19.834C17.3525 19.7768 17.2652 19.6561 17.2545 19.6019L17.0193 19.2396C16.993 19.1739 16.8291 18.9452 16.8357 18.8686L16.7627 18.8522C16.7356 18.7297 16.7215 18.739 16.7416 18.6247L16.1404 17.5873C16.0721 17.4727 16.0661 17.5442 16.0749 17.4099C16.0634 17.3241 15.8511 16.9576 15.7867 16.8293L15.4887 16.2612C15.3729 16.2247 15.4267 16.2546 15.3656 16.1678L15.0846 15.6448C14.9729 15.3686 14.7154 14.9763 14.5729 14.7106C14.5199 14.6119 14.5488 14.7291 14.5212 14.5756L14.5349 14.5639C14.4523 14.5197 14.5159 14.5866 14.4443 14.4918C14.4436 14.4908 14.2259 14.0304 14.139 13.9696L14.1335 13.8574C14.0796 13.756 14.0361 13.6183 13.973 13.5177C13.8837 13.3756 13.8667 13.3787 13.7921 13.2082C13.7284 13.0624 13.5152 12.6841 13.4087 12.6033C13.2587 12.5641 13.3384 12.5561 13.0523 12.4019C12.9016 12.3207 13.0097 12.4123 12.9626 12.3022L12.8807 12.2894L8.24078 12.2945C8.11286 12.2975 7.7627 12.5485 7.74474 12.6684ZM6.77486 9.13485C6.71381 9.2326 6.82622 9.14116 6.70612 9.21877C6.70509 9.21942 6.63855 9.2412 6.63675 9.24167L6.19277 9.37982C5.96629 9.48758 5.76341 9.62925 5.63215 9.62624C5.49021 9.63709 5.64433 9.64889 5.45081 9.69197C5.44131 9.71215 5.46462 9.69792 5.40777 9.74881C5.37165 9.78115 5.37139 9.77487 5.33556 9.79919C5.249 9.85788 5.261 9.88006 5.17477 9.8891C5.11685 10.0041 5.003 10.0581 4.91673 10.1241C4.57596 10.3847 4.66415 10.2852 4.3314 10.6229L4.19594 10.7318L4.14822 10.815C4.11232 10.962 4.07175 10.9428 3.99594 11.0574L3.8333 11.2997L3.84015 11.3066C3.7713 11.4646 3.77921 11.374 3.66187 11.6584L3.50354 11.9568C3.4598 12.0631 3.48583 12.1144 3.36694 12.1623C3.37272 12.3463 3.33155 12.2036 3.26804 12.5348C3.21955 12.7878 3.2194 12.4657 3.17069 12.9332C3.15887 13.0469 3.14882 13.0171 3.10688 13.1032C3.05791 13.2037 3.07683 13.1916 3.06126 13.3031C3.03578 13.4854 2.99741 13.4848 3.00014 13.7338C3.01453 15.0574 3.04756 16.323 3.03107 17.6679C3.02621 18.065 3.01174 18.6472 3.15548 19.024C3.18427 19.0995 3.26973 19.3521 3.27029 19.3944C3.33973 19.4448 3.33855 19.4163 3.38469 19.5103C3.56492 19.8774 3.45325 19.7847 3.49662 19.8806C3.58576 19.9734 3.633 20.048 3.65837 20.1837C3.65292 20.3349 3.77954 20.3949 3.84472 20.5261C4.05934 20.639 4.00496 20.8231 4.24237 21.0235C4.33203 21.0991 4.29134 21.0302 4.36119 21.1148C4.51587 21.3023 4.65148 21.4107 4.65796 21.499C4.67416 21.6376 4.85572 21.667 5.08397 21.881L5.63767 22.2259C5.89699 22.3219 5.86827 22.3402 6.1167 22.4576C6.30901 22.5485 7.25249 22.8336 7.51991 22.8649C8.93204 23.0304 8.84904 22.9845 10.2622 22.9899C10.7866 22.9919 11.1959 23.047 11.5874 22.8776C12.1581 22.6306 12.0682 22.552 12.1588 22.3984C12.207 22.3166 12.2592 22.2503 12.2796 22.1499C12.3856 21.6275 12.2278 21.4681 12.0438 21.1683C12.0009 21.0984 12.0032 21.1269 11.9922 21.0496C11.8755 21.0067 11.8635 20.9694 11.7677 20.9151C11.5007 20.7639 11.3629 20.7056 11.073 20.7083C9.64594 20.7217 9.78302 20.8779 9.7719 20.065L9.75452 14.9322C9.74919 14.3705 10.1338 14.4964 10.8234 14.4962C11.2857 14.496 11.6927 14.4597 12.0266 14.7601L12.4426 15.457C12.4602 15.4956 12.4788 15.5502 12.4988 15.5885C12.5331 15.6545 12.5367 15.6406 12.5701 15.6988C12.658 15.852 12.6249 15.861 12.7572 16.0684L13.0433 16.5214C13.0716 16.611 13.065 16.5549 13.0529 16.6447C13.0999 16.6732 13.0893 16.6581 13.1246 16.6891L13.1962 16.8033C13.2807 16.9551 13.4066 17.1514 13.4529 17.3263C13.5032 17.3881 13.574 17.4932 13.6191 17.5818C13.6572 17.6566 13.7422 17.7999 13.7372 17.8732C13.8913 17.9667 13.994 18.2274 14.056 18.3852C14.1328 18.581 14.2932 18.7353 14.3459 18.927C14.3481 19.0374 14.4554 19.1543 14.5046 19.2318C14.5738 19.3408 14.604 19.4469 14.6662 19.5653C14.7211 19.6697 14.9885 20.0874 14.9943 20.1618C15.1463 20.2833 15.1053 20.3317 15.2145 20.4699L15.4793 20.9428C15.5211 21.0119 15.5141 21.0488 15.551 21.1205C15.596 21.2079 15.6852 21.3022 15.7146 21.3866C15.9048 21.621 15.7553 21.4212 15.9048 21.621C16.0543 21.8207 15.9891 21.8515 16.0543 21.8207L16.2214 22.0924C16.5543 22.0789 16.1887 22.2763 16.3188 22.2364C16.3198 22.3872 16.3678 22.2994 16.3675 22.4285C16.5136 22.5726 16.2913 22.4001 16.4162 22.4765C16.4094 22.4709 16.4319 22.4861 16.4162 22.4765C16.6171 22.6426 16.6046 22.2774 16.5037 22.4765C16.2994 22.5021 16.8076 22.6054 16.5928 22.5726L16.7151 22.6834C16.791 22.7205 16.7792 22.7335 16.86 22.7788C16.9124 22.8082 16.9002 22.7865 16.9419 22.8224C16.994 22.8673 16.9683 22.8504 16.9865 22.8999C17.3046 22.8317 18.4923 22.917 18.9265 22.9158L24.262 22.8871C24.503 22.8815 24.3685 22.8641 24.5066 22.808C24.6287 22.7585 24.7802 22.8274 24.9648 22.7614C25.3536 22.6224 25.5138 22.6256 25.8634 22.4792L26.6017 22.0704C26.7063 22.01 26.5907 22.0377 26.7533 22.0108C26.7805 21.9775 27.0359 21.8109 27.0808 21.7723C27.1349 21.6461 27.1958 21.6233 27.3303 21.493C27.5151 21.3141 27.5117 21.266 27.6182 21.2556C27.6386 21.2147 27.7879 21.071 27.8506 20.9918C27.8889 20.9434 27.941 20.8937 27.9654 20.8592C28.0258 20.7739 27.9861 20.7566 28.0573 20.7101C28.0725 20.6084 28.0807 20.5986 28.1315 20.53L28.4202 20.1369C28.4274 20.0813 28.5107 19.946 28.5479 19.8693L28.7574 19.4006C28.7802 19.3339 28.779 19.2634 28.7968 19.1925C28.9941 18.4071 28.9813 17.9516 28.9834 17.1148C28.9863 15.9443 29.0237 14.678 28.9757 13.519C28.9432 13.3762 28.9387 13.478 28.9174 13.3022C28.9088 13.2307 28.9365 13.2118 28.8973 13.1605C28.8401 13.1237 28.85 13.1495 28.8067 13.0898L28.6718 12.4292L28.6966 12.4334C28.6871 12.4278 28.674 12.421 28.6676 12.4175L28.5816 12.2426C28.5927 12.1018 28.5291 12.1159 28.4381 11.954L28.3164 11.6388C28.2107 11.38 28.1093 11.391 27.9978 11.122C27.8475 11.0579 27.9508 11.1008 27.8607 10.9799L27.1331 10.2256C27.0466 10.1629 27.0236 10.2009 27.0033 10.0774L26.9823 10.0947L26.4756 9.76805C26.3891 9.75335 26.4592 9.77912 26.3794 9.73952C26.2797 9.69008 26.132 9.58174 25.8684 9.50428L25.8621 9.41677C25.7182 9.4233 25.7259 9.39735 25.6408 9.36022C25.446 9.27528 25.1856 9.22516 25.0698 9.18519C24.9122 9.13078 24.7717 9.15968 24.6457 9.10647C24.4706 9.03256 24.4689 9.0509 24.2288 9.04258C23.558 9.01932 22.8746 9.03583 22.202 9.03547C21.5855 9.03514 20.362 8.91598 20.0104 9.35731C19.6221 9.8446 19.7774 10.1916 19.7797 10.5681C19.7903 10.6306 19.807 10.6306 19.8371 10.6615C19.9058 10.7045 19.8942 10.6757 19.9589 10.7889C20.1108 11.0542 20.5084 11.2302 20.8288 11.2417L21.9484 11.2678C22.0795 11.3067 22.09 11.3641 22.1827 11.4187L22.1879 11.564L22.1687 11.5541C22.1985 11.5921 22.1933 11.575 22.2171 11.6429C22.2675 11.7864 22.2301 13.6246 22.2269 13.8573C22.225 13.9972 22.2118 14.3146 22.2236 14.4341C22.2835 15.0397 22.2697 15.4737 22.2665 16.1006C22.2651 16.3769 22.3369 17.0357 22.2032 17.2061C22.1414 17.2849 21.9452 17.4175 21.8491 17.4413C21.7083 17.4762 20.3314 17.4528 20.1423 17.449C19.9461 17.4451 19.8312 17.3812 19.743 17.2638C19.5593 17.0193 19.5479 17.0582 19.5488 16.8717C19.5045 16.7299 19.372 16.5235 19.2896 16.3871C19.2559 16.3313 19.2276 16.2971 19.2045 16.2541C19.1462 16.2155 19.1794 16.2651 19.1191 16.1903C19.0813 16.1434 19.1113 16.1874 19.0881 16.1269C18.9764 15.8349 18.97 15.947 18.8904 15.7706C18.859 15.7011 18.8761 15.7135 18.833 15.6415C18.7726 15.5404 18.8206 15.6592 18.7746 15.5178C18.7233 15.36 18.3192 14.7563 18.1847 14.4308C18.1768 14.4115 18.1639 14.3838 18.1547 14.3629L18.1193 14.2821C18.117 14.1713 17.9028 13.7873 17.8322 13.6774C17.7752 13.5889 17.7017 13.4705 17.6624 13.384C17.6195 13.2897 17.546 13.1698 17.539 13.1043C17.4658 13.0681 17.5148 13.1044 17.4662 13.0578C17.4543 13.0463 17.4342 13.0165 17.4276 13.0021C17.4072 12.9577 17.4007 12.9064 17.3919 12.8469C17.3014 12.8121 17.2648 12.6302 17.2163 12.5323C17.1739 12.4469 17.0564 12.2805 17.0552 12.2055C16.9224 12.1676 16.9703 12.1847 16.9054 12.0697C16.8538 11.9785 16.8738 12.0194 16.8326 11.8955C16.7983 11.7923 16.7465 11.7662 16.6604 11.6054L16.0727 10.4945C16.0009 10.3347 15.6837 9.78086 15.676 9.68729C15.6162 9.52286 15.2424 9.26261 15.0768 9.17539C14.5524 8.89925 14.5901 9.03188 13.973 9.03159L9.07759 9.03289C8.67433 9.03496 8.26482 9.03714 7.86179 9.03227C7.67526 9.03002 7.42017 9.01496 7.2399 9.03325C7.11357 9.04607 7.08595 9.08494 7.00602 9.10697C6.93271 9.12715 6.82225 9.1297 6.77486 9.13485Z" fill="#010101"/>
</g>
</g>
<defs>
<filter id="filter0_d_2_51" x="-1" y="9" width="34" height="22" filterUnits="userSpaceOnUse" color-interpolation-filters="sRGB">
<feFlood flood-opacity="0" result="BackgroundImageFix"/>
<feColorMatrix in="SourceAlpha" type="matrix" values="0 0 0 0 0 0 0 0 0 0 0 0 0 0 0 0 0 0 127 0" result="hardAlpha"/>
<feOffset dy="4"/>
<feGaussianBlur stdDeviation="2"/>
<feComposite in2="hardAlpha" operator="out"/>
<feColorMatrix type="matrix" values="0 0 0 0 0 0 0 0 0 0 0 0 0 0 0 0 0 0 0.25 0"/>
<feBlend mode="normal" in2="BackgroundImageFix" result="effect1_dropShadow_2_51"/>
<feBlend mode="normal" in="SourceGraphic" in2="effect1_dropShadow_2_51" result="shape"/>
</filter>
<clipPath id="clip0_2_51">
<rect width="32" height="32" fill="white"/>
</clipPath>
</defs>
</svg>
